# xmcd CD database file
#
# Track frame offsets:
#	150
#	16640
#	34919
#	60781
#	72570
#	99945
#	112171
#	125117
#	144993
#	162319
#	188009
#	203862
#	227865
#
# Disc length: 3278 seconds
#
# Revision: 7
# Processed by: cddbd v1.5.2PL0 Copyright (c) Steve Scherf et al.
# Submitted via: CDex 1.51
#
DISCID=b00ccc0d
DTITLE=Klontik - Wie man jagt and wie man kampft
DYEAR=2013
DGENRE=jazz
TTITLE0=Klontik - sei doch mal still
TTITLE1=Klontik - was weiss ich !!!
TTITLE2=Klontik - wie man jagt und wie man kampft
TTITLE3=Klontik - nimm mich nicht
TTITLE4=Klontik - es ist genug
TTITLE5=Klontik - Killerengel
TTITLE6=Klontik - geh deinen weg
TTITLE7=Klontik - ohne dich
TTITLE8=Klontik - du tust mir gut
TTITLE9=Klontik - ich und du
TTITLE10=Klontik - boser alter mann
TTITLE11=Klontik - will dein freund nicht sein
TTITLE12=Klontik - die allerletze chance
EXTD=YEAR: 2013
EXTT0=
EXTT1=
EXTT2=
EXTT3=
EXTT4=
EXTT5=
EXTT6=
EXTT7=
EXTT8=
EXTT9=
EXTT10=
EXTT11=
EXTT12=
PLAYORDER=
